<svg width="7" height="7" viewBox="0 0 7 7" fill="none" xmlns="http://www.w3.org/2000/svg">
<g clip-path="url(#clip0_41_119)">
<path d="M7 3.5C7 1.567 5.433 0 3.5 0C1.567 0 0 1.567 0 3.5C0 5.24692 1.27989 6.69491 2.95312 6.95748V4.51172H2.06445V3.5H2.95312V2.72891C2.95312 1.85172 3.47566 1.36719 4.27513 1.36719C4.65794 1.36719 5.05859 1.43555 5.05859 1.43555V2.29687H4.61727C4.1825 2.29687 4.04687 2.56669 4.04687 2.84375V3.5H5.01758L4.8624 4.51172H4.04687V6.95748C5.72011 6.69491 7 5.24692 7 3.5Z" fill="#434343"/>
</g>
<defs>
<clipPath id="clip0_41_119">
<rect width="7" height="7" fill="white"/>
</clipPath>
</defs>
</svg>
