<svg width="7" height="7" viewBox="0 0 7 7" fill="none" xmlns="http://www.w3.org/2000/svg">
<g clip-path="url(#clip0_41_117)">
<path d="M3.5 0.630273C4.43516 0.630273 4.5459 0.634375 4.91367 0.650781C5.25547 0.66582 5.44004 0.723242 5.56309 0.771094C5.72578 0.833984 5.84336 0.910547 5.96504 1.03223C6.08809 1.15527 6.16328 1.27148 6.22617 1.43418C6.27402 1.55723 6.33144 1.74316 6.34648 2.08359C6.36289 2.45273 6.36699 2.56348 6.36699 3.49727C6.36699 4.43242 6.36289 4.54316 6.34648 4.91094C6.33144 5.25273 6.27402 5.4373 6.22617 5.56035C6.16328 5.72305 6.08672 5.84063 5.96504 5.9623C5.84199 6.08535 5.72578 6.16055 5.56309 6.22344C5.44004 6.27129 5.2541 6.32871 4.91367 6.34375C4.54453 6.36016 4.43379 6.36426 3.5 6.36426C2.56484 6.36426 2.4541 6.36016 2.08633 6.34375C1.74453 6.32871 1.55996 6.27129 1.43691 6.22344C1.27422 6.16055 1.15664 6.08398 1.03496 5.9623C0.911914 5.83926 0.836719 5.72305 0.773828 5.56035C0.725976 5.4373 0.668555 5.25137 0.653516 4.91094C0.637109 4.5418 0.633008 4.43105 0.633008 3.49727C0.633008 2.56211 0.637109 2.45137 0.653516 2.08359C0.668555 1.7418 0.725976 1.55723 0.773828 1.43418C0.836719 1.27148 0.913281 1.15391 1.03496 1.03223C1.15801 0.90918 1.27422 0.833984 1.43691 0.771094C1.55996 0.723242 1.7459 0.66582 2.08633 0.650781C2.4541 0.634375 2.56484 0.630273 3.5 0.630273ZM3.5 0C2.5498 0 2.43086 0.00410156 2.05762 0.0205078C1.68574 0.0369141 1.43008 0.0970703 1.20859 0.183203C0.977539 0.273437 0.782031 0.392383 0.587891 0.587891C0.392383 0.782031 0.273437 0.977539 0.183203 1.20723C0.0970703 1.43008 0.0369141 1.68437 0.0205078 2.05625C0.00410156 2.43086 0 2.5498 0 3.5C0 4.4502 0.00410156 4.56914 0.0205078 4.94238C0.0369141 5.31426 0.0970703 5.56992 0.183203 5.79141C0.273437 6.02246 0.392383 6.21797 0.587891 6.41211C0.782031 6.60625 0.977539 6.72656 1.20723 6.81543C1.43008 6.90156 1.68437 6.96172 2.05625 6.97812C2.42949 6.99453 2.54844 6.99863 3.49863 6.99863C4.44883 6.99863 4.56777 6.99453 4.94102 6.97812C5.31289 6.96172 5.56855 6.90156 5.79004 6.81543C6.01973 6.72656 6.21523 6.60625 6.40937 6.41211C6.60351 6.21797 6.72383 6.02246 6.81269 5.79277C6.89883 5.56992 6.95898 5.31563 6.97539 4.94375C6.9918 4.57051 6.9959 4.45156 6.9959 3.50137C6.9959 2.55117 6.9918 2.43223 6.97539 2.05898C6.95898 1.68711 6.89883 1.43145 6.81269 1.20996C6.72656 0.977539 6.60762 0.782031 6.41211 0.587891C6.21797 0.39375 6.02246 0.273437 5.79277 0.18457C5.56992 0.0984375 5.31562 0.0382813 4.94375 0.021875C4.56914 0.00410156 4.4502 0 3.5 0Z" fill="#434343"/>
<path d="M3.5 1.70215C2.50742 1.70215 1.70215 2.50742 1.70215 3.5C1.70215 4.49258 2.50742 5.29785 3.5 5.29785C4.49258 5.29785 5.29785 4.49258 5.29785 3.5C5.29785 2.50742 4.49258 1.70215 3.5 1.70215ZM3.5 4.66621C2.85605 4.66621 2.33379 4.14395 2.33379 3.5C2.33379 2.85605 2.85605 2.33379 3.5 2.33379C4.14395 2.33379 4.66621 2.85605 4.66621 3.5C4.66621 4.14395 4.14395 4.66621 3.5 4.66621Z" fill="#434343"/>
<path d="M5.78867 1.63103C5.78867 1.86345 5.6 2.05076 5.36895 2.05076C5.13652 2.05076 4.94922 1.86209 4.94922 1.63103C4.94922 1.39861 5.13789 1.2113 5.36895 1.2113C5.6 1.2113 5.78867 1.39998 5.78867 1.63103Z" fill="#434343"/>
</g>
<defs>
<clipPath id="clip0_41_117">
<rect width="7" height="7" fill="white"/>
</clipPath>
</defs>
</svg>
