<svg width="7" height="7" viewBox="0 0 7 7" fill="none" xmlns="http://www.w3.org/2000/svg">
<g clip-path="url(#clip0_41_118)">
<path d="M2.20213 6.34378C4.84299 6.34378 6.28783 4.15532 6.28783 2.25807C6.28783 2.19655 6.28646 2.13366 6.28373 2.07214C6.5648 1.86887 6.80735 1.6171 7 1.32866C6.73824 1.44512 6.46031 1.52118 6.17572 1.55425C6.47537 1.37463 6.69974 1.09246 6.80723 0.760046C6.52533 0.92711 6.21704 1.04496 5.89559 1.10854C5.67899 0.878402 5.39262 0.726023 5.08074 0.674962C4.76886 0.623901 4.44885 0.677004 4.17017 0.826059C3.8915 0.975114 3.66969 1.21182 3.53904 1.49958C3.40839 1.78734 3.37617 2.11013 3.44736 2.41803C2.87656 2.38939 2.31815 2.24111 1.80833 1.98281C1.29851 1.72451 0.84866 1.36195 0.487949 0.91864C0.304617 1.23473 0.248516 1.60876 0.331051 1.96472C0.413585 2.32069 0.62856 2.63187 0.932285 2.83503C0.704267 2.82779 0.481243 2.7664 0.281641 2.65592V2.6737C0.281436 3.00541 0.396112 3.32695 0.606174 3.58367C0.816235 3.84039 1.10872 4.01644 1.43391 4.0819C1.22268 4.13969 1.00099 4.14811 0.785996 4.10651C0.877758 4.39178 1.05629 4.64129 1.29668 4.82021C1.53707 4.99913 1.82733 5.09854 2.12693 5.10456C1.61829 5.5041 0.989967 5.72082 0.343164 5.71979C0.228459 5.71962 0.113866 5.71259 0 5.69874C0.657083 6.12029 1.42145 6.34418 2.20213 6.34378Z" fill="#434343"/>
</g>
<defs>
<clipPath id="clip0_41_118">
<rect width="7" height="7" fill="white"/>
</clipPath>
</defs>
</svg>
