<svg width="7" height="7" viewBox="0 0 7 7" fill="none" xmlns="http://www.w3.org/2000/svg">
<path d="M6.93027 2.10002C6.93027 2.10002 6.86191 1.61741 6.65137 1.40549C6.38477 1.12659 6.08672 1.12522 5.95 1.10881C4.97109 1.03772 3.50137 1.03772 3.50137 1.03772H3.49863C3.49863 1.03772 2.02891 1.03772 1.05 1.10881C0.913281 1.12522 0.615234 1.12659 0.348633 1.40549C0.138086 1.61741 0.0710937 2.10002 0.0710937 2.10002C0.0710937 2.10002 0 2.66741 0 3.23342V3.76389C0 4.32991 0.0697266 4.89729 0.0697266 4.89729C0.0697266 4.89729 0.138086 5.37991 0.347266 5.59182C0.613867 5.87073 0.963867 5.86116 1.11973 5.89124C1.68027 5.94456 3.5 5.96096 3.5 5.96096C3.5 5.96096 4.97109 5.95823 5.95 5.8885C6.08672 5.8721 6.38477 5.87073 6.65137 5.59182C6.86191 5.37991 6.93027 4.89729 6.93027 4.89729C6.93027 4.89729 7 4.33127 7 3.76389V3.23342C7 2.66741 6.93027 2.10002 6.93027 2.10002ZM2.77676 4.40784V2.44045L4.66758 3.42756L2.77676 4.40784Z" fill="#434343"/>
</svg>
