<svg width="13" height="16" viewBox="0 0 13 16" fill="none" xmlns="http://www.w3.org/2000/svg">
<path fill-rule="evenodd" clip-rule="evenodd" d="M1.2956 3.58301C1.08612 3.58301 0.780644 3.63989 0.512305 3.82706C0.217743 4.03251 0 4.3757 0 4.85374V14.1025C0 14.3143 0.0613413 14.6181 0.257818 14.8825C0.472546 15.1714 0.820988 15.3733 1.2956 15.3733H1.29935H1.30315H1.30701H1.31091H1.31486H1.31886H1.32291H1.32701H1.33116H1.33535H1.33959H1.34388H1.34822H1.35261H1.35704H1.36152H1.36605H1.37063H1.37525H1.37992H1.38463H1.3894H1.3942H1.39906H1.40396H1.4089H1.41389H1.41893H1.42401H1.42914H1.43431H1.43952H1.44479H1.45009H1.45544H1.46083H1.46627H1.47175H1.47727H1.48284H1.48845H1.49411H1.4998H1.50554H1.51133H1.51715H1.52302H1.52893H1.53488H1.54087H1.54691H1.55298H1.5591H1.56526H1.57146H1.57769H1.58398H1.5903H1.59666H1.60306H1.6095H1.61598H1.6225H1.62906H1.63566H1.6423H1.64898H1.65569H1.66245H1.66924H1.67607H1.68294H1.68985H1.6968H1.70378H1.7108H1.71786H1.72496H1.73209H1.73926H1.74646H1.75371H1.76098H1.7683H1.77565H1.78304H1.79046H1.79792H1.80541H1.81294H1.8205H1.8281H1.83574H1.8434H1.85111H1.85884H1.86661H1.87442H1.88226H1.89013H1.89803H1.90597H1.91395H1.92195H1.92999H1.93806H1.94616H1.95429H1.96246H1.97066H1.97889H1.98715H1.99545H2.00377H2.01213H2.02051H2.02893H2.03738H2.04586H2.05437H2.06291H2.07148H2.08007H2.0887H2.09736H2.10605H2.11477H2.12351H2.13229H2.14109H2.14992H2.15878H2.16767H2.17658H2.18553H2.1945H2.2035H2.21253H2.22158H2.23066H2.23977H2.2489H2.25806H2.26725H2.27647H2.2857H2.29497H2.30426H2.31358H2.32292H2.33229H2.34168H2.3511H2.36054H2.37001H2.3795H2.38901H2.39855H2.40812H2.4177H2.42731H2.43695H2.44661H2.45629H2.46599H2.47572H2.48546H2.49524H2.50503H2.51484H2.52468H2.53454H2.54442H2.55433H2.56425H2.57419H2.58416H2.59415H2.60416H2.61418H2.62423H2.6343H2.64439H2.6545H2.66462H2.67477H2.68494H2.69512H2.70533H2.71555H2.7258H2.73606H2.74634H2.75663H2.76695H2.77728H2.78763H2.798H2.80839H2.81879H2.82921H2.83965H2.85011H2.86058H2.87106H2.88157H2.89209H2.90262H2.91317H2.92374H2.93432H2.94492H2.95553H2.96616H2.9768H2.98746H2.99813H3.00881H3.01951H3.03022H3.04095H3.05169H3.06245H3.07321H3.08399H3.09479H3.10559H3.11641H3.12725H3.13809H3.14894H3.15981H3.17069H3.18158H3.19249H3.2034H3.21433H3.22526H3.23621H3.24717H3.25814H3.26912H3.2801H3.2911H3.30211H3.31313H3.32416H3.3352H3.34624H3.3573H3.36836H3.37944H3.39052H3.40161H3.41271H3.42381H3.43493H3.44605H3.45718H3.46831H3.47946H3.49061H3.50177H3.51293H3.52411H3.53528H3.54647H3.55766H3.56885H3.58006H3.59126H3.60248H3.61369H3.62492H3.63615H3.64738H3.65862H3.66986H3.68111H3.69236H3.70361H3.71487H3.72613H3.7374H3.74867H3.75994H3.77121H3.78249H3.79377H3.80505H3.81634H3.82763H3.83892H3.85021H3.8615H3.87279H3.88409H3.89539H3.90668H3.91798H3.92928H3.94058H3.95188H3.96318H3.97448H3.98579H3.99709H4.00839H4.01968H4.03098H4.04228H4.05358H4.06487H4.07617H4.08746H4.09875H4.11004H4.12132H4.13261H4.14389H4.15517H4.16644H4.17772H4.18899H4.20025H4.21152H4.22278H4.23403H4.24529H4.25653H4.26778H4.27902H4.29025H4.30148H4.31271H4.32393H4.33515H4.34636H4.35756H4.36876H4.37995H4.39114H4.40232H4.4135H4.42466H4.43582H4.44698H4.45813H4.46927H4.4804H4.49153H4.50264H4.51375H4.52486H4.53595H4.54704H4.55811H4.56918H4.58024H4.59129H4.60233H4.61337H4.62439H4.6354H4.64641H4.6574H4.66838H4.67936H4.69032H4.70127H4.71221H4.72314H4.73406H4.74497H4.75587H4.76675H4.77763H4.78849H4.79934H4.81017H4.821H4.83181H4.84261H4.8534H4.86417H4.87493H4.88568H4.89641H4.90713H4.91784H4.92853H4.93921H4.94987H4.96052H4.97115H4.98177H4.99238H5.00297H5.01354H5.0241H5.03464H5.04517H5.05568H5.06617H5.07665H5.08711H5.09756H5.10799H5.1184H5.12879H5.13917H5.14953H5.15987H5.17019H5.1805H5.19079H5.20106H5.21131H5.22154H5.23175H5.24195H5.25212H5.26228H5.27242H5.28254H5.29263H5.30271H5.31277H5.32281H5.33282H5.34282H5.3528H5.36275H5.37268H5.3826H5.39249H5.40236H5.4122H5.42203H5.43183H5.44162H5.45138H5.46111H5.47083H5.48052H5.49019H5.49983H5.50945H5.51905H5.52862H5.53818H5.5477H5.5572H5.56668H5.57614H5.58556H5.59497H5.60435H5.6137H5.62303H5.63233H5.64161H5.65086H5.66009H5.66929H5.67846H5.68761H5.69673H5.70582H5.71489H5.72393H5.73294H5.74192H5.75088H5.75981H5.76871H5.77758H5.78643H5.79524H5.80403H5.81279H5.82152H5.83022H5.83889H5.84754H5.85615H5.86473H5.87329H5.88181H5.8903H5.89876H5.9072H5.9156H5.92397H5.93231H5.94061H5.94889H5.95714H5.96535H5.97353H5.98168H5.9898H5.99788H6.00594H6.01396H6.02194H6.0299H6.03782H6.04571H6.05356H6.06138H6.06868H6.06917H6.07646H6.08429H6.09214H6.10003H6.10795H6.1159H6.12389H6.13191H6.13996H6.14805H6.15616H6.16431H6.17249H6.18071H6.18895H6.19723H6.20554H6.21388H6.22225H6.23065H6.23908H6.24754H6.25604H6.26456H6.27311H6.28169H6.29031H6.29895H6.30762H6.31632H6.32505H6.33381H6.3426H6.35142H6.36026H6.36913H6.37804H6.38696H6.39592H6.40491H6.41392H6.42296H6.43202H6.44112H6.45024H6.45938H6.46856H6.47776H6.48698H6.49623H6.50551H6.51481H6.52414H6.5335H6.54288H6.55228H6.56171H6.57116H6.58064H6.59014H6.59967H6.60922H6.61879H6.62839H6.63801H6.64766H6.65733H6.66702H6.67673H6.68647H6.69623H6.70601H6.71581H6.72564H6.73549H6.74536H6.75525H6.76516H6.77509H6.78505H6.79502H6.80502H6.81504H6.82508H6.83513H6.84521H6.85531H6.86543H6.87556H6.88572H6.8959H6.90609H6.9163H6.92654H6.93679H6.94706H6.95735H6.96765H6.97798H6.98832H6.99868H7.00905H7.01945H7.02986H7.04029H7.05073H7.06119H7.07167H7.08217H7.09268H7.1032H7.11375H7.1243H7.13488H7.14547H7.15607H7.16669H7.17733H7.18797H7.19864H7.20931H7.22001H7.23071H7.24143H7.25217H7.26291H7.27367H7.28445H7.29523H7.30603H7.31685H7.32767H7.33851H7.34936H7.36022H7.37109H7.38198H7.39287H7.40378H7.4147H7.42563H7.43657H7.44753H7.45849H7.46946H7.48044H7.49144H7.50244H7.51346H7.52448H7.53551H7.54655H7.5576H7.56866H7.57973H7.59081H7.60189H7.61299H7.62409H7.6352H7.64632H7.65744H7.66858H7.67972H7.69086H7.70202H7.71318H7.72435H7.73552H7.7467H7.75789H7.76908H7.78028H7.79149H7.8027H7.81391H7.82513H7.83636H7.84759H7.85883H7.87007H7.88131H7.89256H7.90381H7.91507H7.92633H7.93759H7.94886H7.96013H7.9714H7.98268H7.99396H8.00524H8.01652H8.02781H8.0391H8.05039H8.06168H8.07297H8.08427H8.09556H8.10686H8.11816H8.12946H8.14076H8.15206H8.16336H8.17466H8.18596H8.19726H8.20856H8.21986H8.23116H8.24246H8.25375H8.26505H8.27634H8.28764H8.29893H8.31022H8.32151H8.33279H8.34407H8.35535H8.36663H8.37791H8.38918H8.40045H8.41171H8.42297H8.43423H8.44549H8.45674H8.46799H8.47923H8.49047H8.5017H8.51293H8.52415H8.53537H8.54658H8.55779H8.56899H8.58019H8.59138H8.60256H8.61374H8.62491H8.63608H8.64723H8.65839H8.66953H8.68067H8.6918H8.70292H8.71403H8.72514H8.73624H8.74733H8.75841H8.76948H8.78055H8.7916H8.80265H8.81369H8.82471H8.83573H8.84674H8.85774H8.86873H8.87971H8.89068H8.90163H8.91258H8.92352H8.93444H8.94536H8.95626H8.96715H8.97803H8.9889H8.99975H9.0106H9.02143H9.03225H9.04306H9.05385H9.06463H9.0754H9.08615H9.09689H9.10762H9.11833H9.12903H9.13972H9.15039H9.16105H9.17169H9.18231H9.19293H9.20352H9.21411H9.22467H9.23522H9.24576H9.25628H9.26678H9.27727H9.28774H9.29819H9.30863H9.31905H9.32945H9.33984H9.35021H9.36056H9.37089H9.38121H9.39151H9.40179H9.41205H9.42229H9.43251H9.44272H9.45291H9.46307H9.47322H9.48335H9.49346H9.50354H9.51361H9.52366H9.53369H9.5437H9.55368H9.56365H9.57359H9.58352H9.59342H9.6033H9.61316H9.623H9.63281H9.64261H9.65238H9.66213H9.67185H9.68156H9.69124H9.7009H9.71053H9.72014H9.72973H9.73929H9.74883H9.75835H9.76784H9.7773H9.78675H9.79616H9.80556H9.81492H9.82427H9.83358H9.84287H9.85214H9.86138H9.87059H9.87978H9.88894H9.89808H9.90718H9.91626H9.92532H9.93434H9.94334H9.95232H9.96126H9.97018H9.97906H9.98792H9.99676H10.0056H10.0143H10.0231H10.0318H10.0405H10.0491H10.0578H10.0664H10.0749H10.0835H10.092H10.1005H10.1089H10.1173H10.1257H10.1341H10.1424H10.1507H10.159H10.1672H10.1754H10.1835H10.1917H10.1998H10.2079H10.2159H10.2239H10.2319H10.2398H10.2477H10.2556H10.2634H10.2712H10.279H10.2867H10.2944H10.3021H10.3097H10.3173H10.3249H10.3324H10.3399H10.3474H10.3548H10.3622H10.3695H10.3769H10.3841H10.3914H10.3986H10.4058H10.4129H10.42H10.427H10.4341H10.441H10.448H10.4549H10.4618H10.4686H10.4754H10.4822H10.4889H10.4955H10.5022H10.5088H10.5153H10.5219H10.5283H10.5348H10.5412H10.5475H10.5539H10.5601H10.5664H10.5726H10.5787H10.5849H10.5909H10.597H10.603H10.6089H10.6148H10.6207H10.6265H10.6323H10.638H10.6437H10.6494H10.655H10.6606H10.6661H10.6716H10.677H10.6824H10.6878H10.6931H10.6983H10.7035H10.7087H10.7138H10.7189H10.724H10.7289H10.7339H10.7388H10.7436H10.7484H10.7532H10.7579H10.7626H10.7672H10.7718H10.7763H10.7808H10.7852H10.7896H10.794H10.7983H10.8025H10.8067H10.8108H10.8149H10.819H10.823H10.8269H10.8308H10.8347H10.8385H10.8422C11.3169 15.3733 11.6653 15.1714 11.88 14.8825C12.0765 14.6181 12.1378 14.3143 12.1378 14.1025V4.85374C12.1378 4.3757 11.9201 4.03251 11.6255 3.82706C11.3572 3.63989 11.0517 3.58301 10.8422 3.58301H6.06917H6.06868H1.2956ZM6.06868 4.58301H1.2956C1.23987 4.58301 1.14755 4.6032 1.08439 4.64725C1.058 4.66566 1.0405 4.68538 1.02834 4.7082C1.0166 4.73026 1 4.77354 1 4.85374V14.1025C1 14.1477 1.01822 14.2292 1.06042 14.286C1.07792 14.3095 1.09856 14.3279 1.12629 14.3417C1.15394 14.3555 1.20539 14.3733 1.2956 14.3733H1.29935H1.30315H1.30701H1.31091H1.31486H1.31886H1.32291H1.32701H1.33116H1.33535H1.33959H1.34388H1.34822H1.35261H1.35704H1.36152H1.36605H1.37063H1.37525H1.37992H1.38463H1.3894H1.3942H1.39906H1.40396H1.4089H1.41389H1.41893H1.42401H1.42914H1.43431H1.43952H1.44479H1.45009H1.45544H1.46083H1.46627H1.47175H1.47727H1.48284H1.48845H1.49411H1.4998H1.50554H1.51133H1.51715H1.52302H1.52893H1.53488H1.54087H1.54691H1.55298H1.5591H1.56526H1.57146H1.57769H1.58398H1.5903H1.59666H1.60306H1.6095H1.61598H1.6225H1.62906H1.63566H1.6423H1.64898H1.65569H1.66245H1.66924H1.67607H1.68294H1.68985H1.6968H1.70378H1.7108H1.71786H1.72496H1.73209H1.73926H1.74646H1.75371H1.76098H1.7683H1.77565H1.78304H1.79046H1.79792H1.80541H1.81294H1.8205H1.8281H1.83574H1.8434H1.85111H1.85884H1.86661H1.87442H1.88226H1.89013H1.89803H1.90597H1.91395H1.92195H1.92999H1.93806H1.94616H1.95429H1.96246H1.97066H1.97889H1.98715H1.99545H2.00377H2.01213H2.02051H2.02893H2.03738H2.04586H2.05437H2.06291H2.07148H2.08007H2.0887H2.09736H2.10605H2.11477H2.12351H2.13229H2.14109H2.14992H2.15878H2.16767H2.17658H2.18553H2.1945H2.2035H2.21253H2.22158H2.23066H2.23977H2.2489H2.25806H2.26725H2.27647H2.2857H2.29497H2.30426H2.31358H2.32292H2.33229H2.34168H2.3511H2.36054H2.37001H2.3795H2.38901H2.39855H2.40812H2.4177H2.42731H2.43695H2.44661H2.45629H2.46599H2.47572H2.48546H2.49524H2.50503H2.51484H2.52468H2.53454H2.54442H2.55433H2.56425H2.57419H2.58416H2.59415H2.60416H2.61418H2.62423H2.6343H2.64439H2.6545H2.66462H2.67477H2.68494H2.69512H2.70533H2.71555H2.7258H2.73606H2.74634H2.75663H2.76695H2.77728H2.78763H2.798H2.80839H2.81879H2.82921H2.83965H2.85011H2.86058H2.87106H2.88157H2.89209H2.90262H2.91317H2.92374H2.93432H2.94492H2.95553H2.96616H2.9768H2.98746H2.99813H3.00881H3.01951H3.03022H3.04095H3.05169H3.06245H3.07321H3.08399H3.09479H3.10559H3.11641H3.12725H3.13809H3.14894H3.15981H3.17069H3.18158H3.19249H3.2034H3.21433H3.22526H3.23621H3.24717H3.25814H3.26912H3.2801H3.2911H3.30211H3.31313H3.32416H3.3352H3.34624H3.3573H3.36836H3.37944H3.39052H3.40161H3.41271H3.42381H3.43493H3.44605H3.45718H3.46831H3.47946H3.49061H3.50177H3.51293H3.52411H3.53528H3.54647H3.55766H3.56885H3.58006H3.59126H3.60248H3.61369H3.62492H3.63615H3.64738H3.65862H3.66986H3.68111H3.69236H3.70361H3.71487H3.72613H3.7374H3.74867H3.75994H3.77121H3.78249H3.79377H3.80505H3.81634H3.82763H3.83892H3.85021H3.8615H3.87279H3.88409H3.89539H3.90668H3.91798H3.92928H3.94058H3.95188H3.96318H3.97448H3.98579H3.99709H4.00839H4.01968H4.03098H4.04228H4.05358H4.06487H4.07617H4.08746H4.09875H4.11004H4.12132H4.13261H4.14389H4.15517H4.16644H4.17772H4.18899H4.20025H4.21152H4.22278H4.23403H4.24529H4.25653H4.26778H4.27902H4.29025H4.30148H4.31271H4.32393H4.33515H4.34636H4.35756H4.36876H4.37995H4.39114H4.40232H4.4135H4.42466H4.43582H4.44698H4.45813H4.46927H4.4804H4.49153H4.50264H4.51375H4.52486H4.53595H4.54704H4.55811H4.56918H4.58024H4.59129H4.60233H4.61337H4.62439H4.6354H4.64641H4.6574H4.66838H4.67936H4.69032H4.70127H4.71221H4.72314H4.73406H4.74497H4.75587H4.76675H4.77763H4.78849H4.79934H4.81017H4.821H4.83181H4.84261H4.8534H4.86417H4.87493H4.88568H4.89641H4.90713H4.91784H4.92853H4.93921H4.94987H4.96052H4.97115H4.98177H4.99238H5.00297H5.01354H5.0241H5.03464H5.04517H5.05568H5.06617H5.07665H5.08711H5.09756H5.10799H5.1184H5.12879H5.13917H5.14953H5.15987H5.17019H5.1805H5.19079H5.20106H5.21131H5.22154H5.23175H5.24195H5.25212H5.26228H5.27242H5.28254H5.29263H5.30271H5.31277H5.32281H5.33282H5.34282H5.3528H5.36275H5.37268H5.3826H5.39249H5.40236H5.4122H5.42203H5.43183H5.44162H5.45138H5.46111H5.47083H5.48052H5.49019H5.49983H5.50945H5.51905H5.52862H5.53818H5.5477H5.5572H5.56668H5.57614H5.58556H5.59497H5.60435H5.6137H5.62303H5.63233H5.64161H5.65086H5.66009H5.66929H5.67846H5.68761H5.69673H5.70582H5.71489H5.72393H5.73294H5.74192H5.75088H5.75981H5.76871H5.77758H5.78643H5.79524H5.80403H5.81279H5.82152H5.83022H5.83889H5.84754H5.85615H5.86473H5.87329H5.88181H5.8903H5.89876H5.9072H5.9156H5.92397H5.93231H5.94061H5.94889H5.95714H5.96535H5.97353H5.98168H5.9898H5.99788H6.00594H6.01396H6.02194H6.0299H6.03782H6.04571H6.05356H6.06138H6.06868H6.06917H6.07646H6.08429H6.09214H6.10003H6.10795H6.1159H6.12389H6.13191H6.13996H6.14805H6.15616H6.16431H6.17249H6.18071H6.18895H6.19723H6.20554H6.21388H6.22225H6.23065H6.23908H6.24754H6.25604H6.26456H6.27311H6.28169H6.29031H6.29895H6.30762H6.31632H6.32505H6.33381H6.3426H6.35142H6.36026H6.36913H6.37804H6.38696H6.39592H6.40491H6.41392H6.42296H6.43202H6.44112H6.45024H6.45938H6.46856H6.47776H6.48698H6.49623H6.50551H6.51481H6.52414H6.5335H6.54288H6.55228H6.56171H6.57116H6.58064H6.59014H6.59967H6.60922H6.61879H6.62839H6.63801H6.64766H6.65733H6.66702H6.67673H6.68647H6.69623H6.70601H6.71581H6.72564H6.73549H6.74536H6.75525H6.76516H6.77509H6.78505H6.79502H6.80502H6.81504H6.82508H6.83513H6.84521H6.85531H6.86543H6.87556H6.88572H6.8959H6.90609H6.9163H6.92654H6.93679H6.94706H6.95735H6.96765H6.97798H6.98832H6.99868H7.00905H7.01945H7.02986H7.04029H7.05073H7.06119H7.07167H7.08217H7.09268H7.1032H7.11375H7.1243H7.13488H7.14547H7.15607H7.16669H7.17733H7.18797H7.19864H7.20931H7.22001H7.23071H7.24143H7.25217H7.26291H7.27367H7.28445H7.29523H7.30603H7.31685H7.32767H7.33851H7.34936H7.36022H7.37109H7.38198H7.39287H7.40378H7.4147H7.42563H7.43657H7.44753H7.45849H7.46946H7.48044H7.49144H7.50244H7.51346H7.52448H7.53551H7.54655H7.5576H7.56866H7.57973H7.59081H7.60189H7.61299H7.62409H7.6352H7.64632H7.65744H7.66858H7.67972H7.69086H7.70202H7.71318H7.72435H7.73552H7.7467H7.75789H7.76908H7.78028H7.79149H7.8027H7.81391H7.82513H7.83636H7.84759H7.85883H7.87007H7.88131H7.89256H7.90381H7.91507H7.92633H7.93759H7.94886H7.96013H7.9714H7.98268H7.99396H8.00524H8.01652H8.02781H8.0391H8.05039H8.06168H8.07297H8.08427H8.09556H8.10686H8.11816H8.12946H8.14076H8.15206H8.16336H8.17466H8.18596H8.19726H8.20856H8.21986H8.23116H8.24246H8.25375H8.26505H8.27634H8.28764H8.29893H8.31022H8.32151H8.33279H8.34407H8.35535H8.36663H8.37791H8.38918H8.40045H8.41171H8.42297H8.43423H8.44549H8.45674H8.46799H8.47923H8.49047H8.5017H8.51293H8.52415H8.53537H8.54658H8.55779H8.56899H8.58019H8.59138H8.60256H8.61374H8.62491H8.63608H8.64723H8.65839H8.66953H8.68067H8.6918H8.70292H8.71403H8.72514H8.73624H8.74733H8.75841H8.76948H8.78055H8.7916H8.80265H8.81369H8.82471H8.83573H8.84674H8.85774H8.86873H8.87971H8.89068H8.90163H8.91258H8.92352H8.93444H8.94536H8.95626H8.96715H8.97803H8.9889H8.99975H9.0106H9.02143H9.03225H9.04306H9.05385H9.06463H9.0754H9.08615H9.09689H9.10762H9.11833H9.12903H9.13972H9.15039H9.16105H9.17169H9.18231H9.19293H9.20352H9.21411H9.22467H9.23522H9.24576H9.25628H9.26678H9.27727H9.28774H9.29819H9.30863H9.31905H9.32945H9.33984H9.35021H9.36056H9.37089H9.38121H9.39151H9.40179H9.41205H9.42229H9.43251H9.44272H9.45291H9.46307H9.47322H9.48335H9.49346H9.50354H9.51361H9.52366H9.53369H9.5437H9.55368H9.56365H9.57359H9.58352H9.59342H9.6033H9.61316H9.623H9.63281H9.64261H9.65238H9.66213H9.67185H9.68156H9.69124H9.7009H9.71053H9.72014H9.72973H9.73929H9.74883H9.75835H9.76784H9.7773H9.78675H9.79616H9.80556H9.81492H9.82427H9.83358H9.84287H9.85214H9.86138H9.87059H9.87978H9.88894H9.89808H9.90718H9.91626H9.92532H9.93434H9.94334H9.95232H9.96126H9.97018H9.97906H9.98792H9.99676H10.0056H10.0143H10.0231H10.0318H10.0405H10.0491H10.0578H10.0664H10.0749H10.0835H10.092H10.1005H10.1089H10.1173H10.1257H10.1341H10.1424H10.1507H10.159H10.1672H10.1754H10.1835H10.1917H10.1998H10.2079H10.2159H10.2239H10.2319H10.2398H10.2477H10.2556H10.2634H10.2712H10.279H10.2867H10.2944H10.3021H10.3097H10.3173H10.3249H10.3324H10.3399H10.3474H10.3548H10.3622H10.3695H10.3769H10.3841H10.3914H10.3986H10.4058H10.4129H10.42H10.427H10.4341H10.441H10.448H10.4549H10.4618H10.4686H10.4754H10.4822H10.4889H10.4955H10.5022H10.5088H10.5153H10.5219H10.5283H10.5348H10.5412H10.5475H10.5539H10.5601H10.5664H10.5726H10.5787H10.5849H10.5909H10.597H10.603H10.6089H10.6148H10.6207H10.6265H10.6323H10.638H10.6437H10.6494H10.655H10.6606H10.6661H10.6716H10.677H10.6824H10.6878H10.6931H10.6983H10.7035H10.7087H10.7138H10.7189H10.724H10.7289H10.7339H10.7388H10.7436H10.7484H10.7532H10.7579H10.7626H10.7672H10.7718H10.7763H10.7808H10.7852H10.7896H10.794H10.7983H10.8025H10.8067H10.8108H10.8149H10.819H10.823H10.8269H10.8308H10.8347H10.8385H10.8422C10.9325 14.3733 10.9839 14.3555 11.0116 14.3417C11.0393 14.3279 11.0599 14.3095 11.0774 14.286C11.1196 14.2292 11.1378 14.1477 11.1378 14.1025V4.85374C11.1378 4.77354 11.1212 4.73026 11.1095 4.7082C11.0973 4.68538 11.0798 4.66566 11.0535 4.64725C10.9903 4.6032 10.898 4.58301 10.8422 4.58301H6.06917H6.06868Z" fill="black"/>
<path d="M3.75684 6.39513V3.3122C3.75692 2.54147 3.91098 1 6.06903 1C8.22709 1 8.38115 2.54147 8.38115 3.3122V6.39513" stroke="black" stroke-linecap="round"/>
</svg>
