<svg width="58" height="43" viewBox="0 0 58 43" fill="none" xmlns="http://www.w3.org/2000/svg">
<path d="M28.5 16C28.5 16.2761 28.7239 16.5 29 16.5C29.2761 16.5 29.5 16.2761 29.5 16L28.5 16ZM29.3536 6.64645C29.1583 6.45118 28.8417 6.45118 28.6464 6.64645L25.4645 9.82843C25.2692 10.0237 25.2692 10.3403 25.4645 10.5355C25.6597 10.7308 25.9763 10.7308 26.1716 10.5355L29 7.70711L31.8284 10.5355C32.0237 10.7308 32.3403 10.7308 32.5355 10.5355C32.7308 10.3403 32.7308 10.0237 32.5355 9.82843L29.3536 6.64645ZM29.5 16L29.5 7L28.5 7L28.5 16L29.5 16Z" fill="black"/>
<path d="M19.8252 29.7109V28.9297H25.1572V29.7109H22.9404V36H22.0518V29.7109H19.8252ZM32.0127 32.4648C32.0176 34.7012 30.6992 36.0977 28.8877 36.0977C27.0713 36.0977 25.7578 34.7012 25.7627 32.4648C25.7578 30.2285 27.0713 28.832 28.8877 28.832C30.6992 28.832 32.0176 30.2285 32.0127 32.4648ZM26.6123 32.4648C26.6172 34.2861 27.6084 35.2725 28.8877 35.2773C30.167 35.2725 31.1582 34.2861 31.1631 32.4648C31.1582 30.6387 30.167 29.6523 28.8877 29.6523C27.6084 29.6523 26.6172 30.6387 26.6123 32.4648ZM33.3018 36V28.9297H35.7041C37.3594 28.9297 38.1162 29.916 38.1162 31.1758C38.1162 32.4307 37.3594 33.4316 35.7139 33.4316H34.1807V36H33.3018ZM34.1807 32.6504H35.6748C36.8027 32.6504 37.2422 32.0156 37.2471 31.1758C37.2422 30.3311 36.8027 29.7109 35.665 29.7109H34.1807V32.6504Z" fill="black"/>
<circle cx="29" cy="11" r="10.5" stroke="black"/>
</svg>
